<svg width="27" height="27" viewBox="0 0 27 27" fill="none" xmlns="http://www.w3.org/2000/svg">
<path fill-rule="evenodd" clip-rule="evenodd" d="M12.25 26C11.5954 26 11.037 25.5262 10.9304 24.8804C10.8322 24.3579 10.456 23.9309 9.95002 23.7679C9.53769 23.6262 9.13452 23.4593 8.74287 23.2679C8.27683 23.0295 7.71775 23.0652 7.28573 23.3607C6.76293 23.7366 6.04474 23.6784 5.5893 23.2232L3.81787 21.4518C3.34113 20.975 3.27919 20.2234 3.67145 19.675C3.97396 19.233 4.01753 18.6632 3.78573 18.1804C3.633 17.845 3.49828 17.5016 3.38216 17.1518C3.21584 16.6005 2.75678 16.1877 2.19108 16.0804C1.50892 15.9714 1.00531 15.3855 1.00002 14.6946V12.4786C0.996391 11.6823 1.57152 11.0012 2.35716 10.8714C2.95317 10.758 3.45084 10.3498 3.67859 9.7875C3.74645 9.62916 3.81787 9.47202 3.89287 9.31607C4.19577 8.73293 4.15394 8.03055 3.78394 7.4875C3.32124 6.84443 3.39229 5.96088 3.95179 5.4L5.25359 4.09821C5.89564 3.45593 6.90824 3.3728 7.64645 3.90179L7.68751 3.93036C8.23873 4.30136 8.94016 4.36855 9.55179 4.10893C10.2061 3.87341 10.6885 3.31114 10.8214 2.62857L10.8394 2.56786C10.9863 1.66423 11.7667 1.00038 12.6822 1H14.2537C15.1938 0.999572 15.9962 1.67959 16.15 2.60714L16.1786 2.73214C16.3048 3.38602 16.7621 3.92718 17.3857 4.16071C17.9868 4.4187 18.678 4.35132 19.2179 3.98214L19.3071 3.91786C20.0645 3.37204 21.1059 3.45598 21.7661 4.11607L22.9643 5.31607C23.5648 5.91993 23.6403 6.86952 23.1429 7.56071C22.7531 8.13843 22.7035 8.8808 23.0125 9.50536L23.0894 9.68393C23.3396 10.2937 23.8811 10.7357 24.5286 10.8589C25.3749 10.997 25.9973 11.7266 26 12.5839V14.5714C25.9998 15.3275 25.4529 15.9725 24.7071 16.0964C24.0938 16.2141 23.5941 16.6582 23.4053 17.2536C23.322 17.4916 23.2291 17.7298 23.1267 17.9679C22.8885 18.4911 22.9414 19.1007 23.2661 19.575C23.6945 20.1711 23.628 20.9898 23.109 21.5089L21.4465 23.1732C20.9711 23.6486 20.2212 23.7098 19.6751 23.3179C19.219 23.0062 18.6284 22.972 18.1394 23.2286C17.7908 23.4012 17.4331 23.5545 17.0679 23.6875C16.5571 23.8637 16.1806 24.3009 16.0822 24.8321C15.978 25.5005 15.4049 25.995 14.7286 26H12.25Z" stroke="#E4E4E4" stroke-width="2" stroke-linecap="round" stroke-linejoin="round"/>
<path fill-rule="evenodd" clip-rule="evenodd" d="M17.6659 13.5C17.6659 15.8009 15.8007 17.6661 13.4998 17.6661C11.1989 17.6661 9.33374 15.8009 9.33374 13.5C9.33374 11.1991 11.1989 9.33391 13.4998 9.33391C15.8007 9.33391 17.6659 11.1991 17.6659 13.5Z" stroke="#E4E4E4" stroke-width="2" stroke-linecap="round" stroke-linejoin="round"/>
</svg>
